<svg width="42" height="50" viewBox="0 0 42 50" fill="none" xmlns="http://www.w3.org/2000/svg">
<path fill-rule="evenodd" clip-rule="evenodd" d="M6.01908 5.96845L6.01907 5.96844C5.97917 5.94632 5.93882 5.92394 5.89459 5.89445H5.90292C5.90565 5.8899 5.90899 5.88504 5.91252 5.87989L5.91253 5.87987C5.91978 5.86932 5.92788 5.85751 5.93347 5.84445C5.94458 5.84029 5.95639 5.83682 5.9682 5.83334L5.96821 5.83334C5.98001 5.82987 5.99181 5.8264 6.00292 5.82223C6.06821 5.86887 6.09091 5.91802 6.11476 5.96967C6.12642 5.99492 6.13836 6.02078 6.1557 6.04723C8.61959 7.59445 9.99736 6.7639 10.9613 4.60557C11.0946 4.29446 11.2224 3.95834 11.3474 3.60001C12.4858 0.256237 15.1642 0.215536 17.7546 0.176172C18.5836 0.163575 19.4036 0.151114 20.1613 0.0305659C21.989 -0.255545 21.4057 1.44723 20.614 2.26668C20.3527 2.54064 20.0456 2.7713 19.7275 3.01018C18.9265 3.61175 18.0561 4.26549 17.6724 5.79445C18.4111 5.79445 19.1183 5.79908 19.8038 5.80356C21.3093 5.8134 22.7103 5.82256 24.1113 5.78057C26.7307 5.70279 27.1751 6.65557 25.7307 8.77501C25.4143 9.24218 25.1584 9.75279 24.903 10.2623L24.903 10.2623C24.5845 10.898 24.2667 11.532 23.8335 12.0778C22.3196 13.9722 22.3529 15.2667 24.8363 16.15C25.4613 16.3722 26.2668 16.9278 26.4251 17.4917C27.1789 20.1628 28.9836 22.1701 30.7831 24.1715C32.7767 26.3889 34.7639 28.5991 35.3085 31.6972C35.3338 31.8398 35.3511 31.9718 35.367 32.0927C35.4536 32.754 35.4968 33.0833 36.5724 32.9917C38.4057 32.8195 40.5751 32.7972 41.0863 35.1361C41.5779 37.3667 39.9863 38.7861 38.2835 39.9639C38.0515 40.1224 37.8748 40.3548 37.6773 40.6144L37.6772 40.6145L37.6772 40.6146C37.5909 40.728 37.5007 40.8467 37.4001 40.9667C37.5572 41.652 38.1512 41.6702 38.7071 41.6872C39.2621 41.7042 39.7793 41.72 39.7863 42.3972C39.7974 43.525 38.589 44.05 37.7529 44.3083C33.489 45.6333 28.9974 46.0833 24.6251 45.9945C22.2912 45.9429 20.2483 46.6889 18.2165 47.4308C16.7418 47.9692 15.273 48.5055 13.7029 48.7333C13.473 48.7677 13.2473 48.819 13.0171 48.8714C12.185 49.0609 11.2952 49.2634 9.94181 48.7195C11.5467 48.1366 12.607 46.9549 13.675 45.7646C15.2688 43.9882 16.88 42.1925 20.3446 42.3389C19.7381 42.0869 19.251 41.8814 18.8418 41.7087L18.8389 41.7075L18.8387 41.7074L18.8386 41.7074L18.8385 41.7074C18.0409 41.3708 17.5399 41.1594 17.0279 40.9722C14.6974 40.1306 14.3863 38.4945 16.1251 36.6C17.1057 35.5361 17.7835 34.3945 15.5613 33.9333C14.3397 33.6816 14.6312 33.1589 14.9544 32.5794C15.1875 32.1613 15.4372 31.7136 15.1474 31.3167C14.7751 30.8056 15.9974 30.6611 16.7029 30.75C18.7918 31.0195 21.7446 31.3806 20.9335 28.3278C20.8676 28.0811 20.8052 27.8031 20.7386 27.5068L20.7385 27.5065L20.7385 27.5064C20.2775 25.454 19.6184 22.5197 16.2446 22.9639C12.589 23.4445 11.4418 22.5389 13.7279 19.2222C13.2629 19.0142 12.6196 19.2545 12.0029 19.4849C10.8328 19.922 9.75868 20.3233 10.1807 17.5583C10.2057 17.3833 9.86125 16.9639 9.79181 16.9833C9.52605 17.0675 9.25448 17.3309 8.98452 17.5927L8.98451 17.5927C8.39951 18.1601 7.8221 18.7201 7.32792 17.4333C6.97531 16.516 7.57204 16.2735 8.27248 15.9888C8.98463 15.6993 9.804 15.3662 9.84181 14.2361C9.78667 14.0572 9.37544 14.0532 8.93276 14.0489C8.19341 14.0417 7.36634 14.0336 7.96403 13.2083C9.95359 10.4633 8.43143 9.30962 6.72839 8.0189L6.72833 8.01886L6.72817 8.01873C6.55286 7.88587 6.37564 7.75155 6.20014 7.6139C5.96994 7.43464 6.05376 7.16439 6.1434 6.87539C6.18572 6.73894 6.22933 6.59832 6.24181 6.46112C6.24181 6.45696 6.24042 6.4514 6.23903 6.44585L6.23903 6.44584C6.23764 6.44029 6.23625 6.43473 6.23625 6.43057C6.24459 6.30001 6.2307 6.16668 6.15014 6.04723C6.10415 6.01561 6.06188 5.99217 6.01909 5.96845L6.01908 5.96845ZM1.47792 26.1861C0.916807 26.0945 0.277918 25.5056 0.339029 24.6583C0.461252 23.1028 5.20292 19.9333 7.30847 20.0583C9.24761 20.1651 9.87295 21.4829 10.4607 22.7216C10.6989 23.2236 10.931 23.7127 11.2418 24.1028C11.1501 25.9361 10.0418 26.9722 8.85014 26.9778C6.51014 27.0069 4.15248 26.6223 1.82283 26.2423L1.47792 26.1861ZM8.19181 0.877788C5.56681 1.57779 4.05292 2.97223 4.23903 5.79168C2.48065 5.96463 2.99071 6.67977 3.46081 7.33888C3.53432 7.44194 3.60686 7.54364 3.66958 7.64168C3.8053 7.33292 4.04152 7.04282 4.28521 6.74352L4.28522 6.74352C4.44055 6.55274 4.59892 6.35824 4.73625 6.15279C4.8904 6.1129 5.04497 6.07218 5.19963 6.03144L5.19983 6.03138C5.44364 5.96715 5.68769 5.90285 5.9307 5.84168C6.16748 5.31966 6.57456 4.87828 6.98746 4.43059C7.82913 3.51801 8.69497 2.57922 8.19181 0.877788ZM3.57514 8.42501C3.99736 8.27779 3.88347 7.98334 3.66681 7.64168C3.55847 7.88057 3.49459 8.13057 3.57514 8.42501Z" fill="#0E8784"/>
</svg>
